<svg width="719" height="119" viewBox="0 0 719 119" fill="none" xmlns="http://www.w3.org/2000/svg">
<g clip-path="url(#clip0_6_2)">
<rect width="719" height="119" fill="white"/>
<path d="M483.255 34.575C471.695 34.575 462.6 43.755 462.6 56.165C462.6 69.17 471.61 77.925 482.83 77.925C493.115 77.925 499.83 72.4 501.275 62.625H480.96V53.7H511.56C511.73 54.975 511.9 56.675 511.9 57.95C511.9 75.63 500.51 87.36 482.405 87.36C464.64 87.36 451.635 74.27 451.635 56.335C451.635 38.23 465.575 25.14 483.34 25.14C494.73 25.14 503.825 30.495 508.67 38.4L501.02 44.435C496.515 37.72 490.48 34.575 483.255 34.575ZM540.244 79.03C544.664 79.03 549.084 77.16 552.739 73.08L558.094 78.86C553.589 84.215 547.129 87.36 539.309 87.36C526.049 87.36 516.869 78.435 516.869 65.09C516.869 52.51 526.219 42.82 538.799 42.82C551.294 42.82 559.624 51.575 559.624 64.665C559.624 66.11 559.454 67.47 559.284 68.49H527.324C528.514 75.29 533.784 79.03 540.244 79.03ZM538.799 50.98C533.274 50.98 528.599 54.55 527.324 61.35H549.509C548.574 54.805 544.409 50.98 538.799 50.98ZM575.493 44.01V49.11C578.638 45.2 583.228 42.99 589.178 42.99C600.568 42.99 606.603 50.64 606.603 62.37V86H596.403V63.305C596.403 56.505 593.003 51.83 586.458 51.83C579.913 51.83 575.833 56.845 575.833 63.815V86H565.633V44.01H575.493ZM621.765 86H610.545L636.215 26.5H647.52L673.19 86H661.715L655.425 71.125H627.97L621.765 86ZM631.88 61.775H651.515L641.74 38.4L631.88 61.775ZM678.972 26.5H689.852V86H678.972V26.5Z" fill="url(#paint0_linear_6_2)"/>
<g clip-path="url(#clip1_6_2)">
<path d="M441.62 0H0V118.829H441.62V0Z" fill="white"/>
<path fill-rule="evenodd" clip-rule="evenodd" d="M56.4157 25.1243C73.6997 25.1243 87.7321 39.1708 87.7321 56.4723C87.7321 73.774 73.6997 87.8206 56.4157 87.8206C39.1313 87.8206 25.0989 73.774 25.0989 56.4723C25.0989 39.1708 39.1313 25.1243 56.4157 25.1243ZM56.4157 34.073C68.7655 34.073 78.7924 44.11 78.7924 56.4723C78.7924 68.8349 68.7655 78.8719 56.4157 78.8719C44.0655 78.8719 34.0386 68.8349 34.0386 56.4723C34.0386 44.11 44.0655 34.073 56.4157 34.073Z" fill="black"/>
<path fill-rule="evenodd" clip-rule="evenodd" d="M384.142 25.1243C401.426 25.1243 415.458 39.1708 415.458 56.4723C415.458 73.774 401.426 87.8206 384.142 87.8206C366.858 87.8206 352.825 73.774 352.825 56.4723C352.825 39.1708 366.858 25.1243 384.142 25.1243ZM384.142 34.073C396.492 34.073 406.519 44.11 406.519 56.4723C406.519 68.8349 396.492 78.8719 384.142 78.8719C371.792 78.8719 361.765 68.8349 361.765 56.4723C361.765 44.11 371.792 34.073 384.142 34.073Z" fill="black"/>
<path d="M412.694 27.405H410.861V26.1081H416.011V27.405H414.179V31.6437H412.694V27.405Z" fill="black"/>
<path d="M420.791 26.1081H422.995V31.6437H421.526V27.7134L420.333 30.2993H419.108L417.971 27.7609V31.6437H416.501V26.1081H418.705L419.725 28.4884L420.791 26.1081Z" fill="black"/>
<path fill-rule="evenodd" clip-rule="evenodd" d="M67.9619 51.6823C68.6083 53.1935 68.9651 54.8573 68.9651 56.6037C68.9651 63.5371 63.3418 69.1661 56.4154 69.1661C49.4894 69.1661 43.8661 63.5371 43.8661 56.6037C43.8661 49.6708 49.4894 44.0417 56.4154 44.0417C58.1291 44.0417 59.7629 44.3864 61.2498 45.0119C59.5254 45.8052 58.3344 47.5533 58.3344 49.577C58.3344 52.367 60.5971 54.6321 63.3844 54.6321C65.419 54.6321 67.1739 53.4251 67.9619 51.6823Z" fill="#6C24F0"/>
<path fill-rule="evenodd" clip-rule="evenodd" d="M395.688 51.6823C396.335 53.1935 396.692 54.8573 396.692 56.6037C396.692 63.5371 391.068 69.1661 384.142 69.1661C377.216 69.1661 371.593 63.5371 371.593 56.6037C371.593 49.6708 377.216 44.0417 384.142 44.0417C385.856 44.0417 387.489 44.3864 388.976 45.0119C387.252 45.8052 386.061 47.5533 386.061 49.577C386.061 52.367 388.324 54.6321 391.111 54.6321C393.145 54.6321 394.9 53.4251 395.688 51.6823Z" fill="#6C24F0"/>
<path fill-rule="evenodd" clip-rule="evenodd" d="M101.49 50.3207C101.599 50.5291 101.765 50.3858 101.865 50.2865C105.514 46.6487 110.421 44.4198 115.813 44.4198C127.076 44.4198 136.22 54.1433 136.22 66.1203C136.22 78.0973 127.076 87.8208 115.813 87.8208C110.59 87.8208 105.823 85.7298 102.212 82.2924C102.049 82.1374 101.746 81.9109 101.49 82.1679V106.294H92.5413V45.3019H101.49V50.3207ZM101.49 69.8078V62.4329C103.069 56.791 108.183 52.654 114.24 52.654C121.556 52.654 127.495 58.6881 127.495 66.1203C127.495 73.5526 121.556 79.5867 114.24 79.5867C108.183 79.5867 103.069 75.45 101.49 69.8078Z" fill="black"/>
<path d="M289.216 26.108H280.267V86.9906H289.216V26.108Z" fill="black"/>
<path fill-rule="evenodd" clip-rule="evenodd" d="M246.215 86.9907L225.25 26.1084H234.198C234.198 26.1084 247.487 64.8765 250.264 72.7634C250.363 73.0449 250.662 73.4267 250.859 73.4304C251.057 73.4338 251.351 73.0593 251.448 72.7845C254.225 64.8973 267.521 26.1084 267.521 26.1084H276.469L255.504 86.9907H246.215Z" fill="black"/>
<path fill-rule="evenodd" clip-rule="evenodd" d="M306.569 41.0457C306.586 40.8501 306.685 40.8817 306.685 40.8817C306.685 40.8817 306.818 40.8723 306.973 41.087L337.804 86.9907H347.516V25.9987H338.57V71.4498C338.57 71.7135 338.452 71.6756 338.452 71.6756C338.452 71.6756 338.308 71.686 338.146 71.4448C333.043 63.8542 307.695 26.1084 307.695 26.1084H297.621V86.9907H306.569V41.0457Z" fill="black"/>
<path fill-rule="evenodd" clip-rule="evenodd" d="M218.506 64.597V86.9908H227.454V63.7096C227.454 50.4848 220.885 44.4198 210.953 44.4198C203.574 44.4198 199.757 48.3975 198.469 49.9664C198.156 50.3479 198.004 50.5851 198.004 50.5851L197.645 49.6453V45.3019H188.697V86.9908H197.645V64.9993C197.645 56.6296 201.787 52.3399 208.66 52.3399C215.972 52.3399 218.488 57.6916 218.506 64.597Z" fill="black"/>
<path fill-rule="evenodd" clip-rule="evenodd" d="M174.65 72.5742C175.424 73.0335 181.197 76.3891 181.598 76.6378C178.115 83.1648 172.313 87.8208 162.209 87.8208C149.102 87.8208 140.531 78.265 140.531 66.2881C140.531 54.3111 150.245 44.5876 162.209 44.5876C172.059 44.5876 183.912 50.8247 183.676 69.334H149.133C149.133 69.334 148.754 69.3206 148.701 69.5098C148.662 69.6501 148.731 69.8484 148.803 70.1014C150.462 75.9489 155.839 80.2369 162.209 80.2369C167.642 80.2369 172.352 77.1186 174.65 72.5742ZM174.543 61.5062C174.492 61.6756 174.252 61.6467 174.252 61.6467H149.684C149.684 61.6467 149.294 61.6783 149.236 61.3391C149.205 61.1612 149.336 60.9301 149.491 60.5828C151.672 55.7254 156.549 52.3392 162.209 52.3392C168.074 52.3392 172.635 55.1936 174.436 61.0344C174.498 61.2351 174.574 61.4042 174.543 61.5062Z" fill="black"/>
</g>
</g>
<defs>
<linearGradient id="paint0_linear_6_2" x1="719.985" y1="74.9522" x2="409.771" y2="5.81123" gradientUnits="userSpaceOnUse">
<stop offset="0.26" stop-color="#B57CFF"/>
<stop offset="0.63" stop-color="#3094FF"/>
<stop offset="0.99" stop-color="#91FFED"/>
</linearGradient>
<clipPath id="clip0_6_2">
<rect width="719" height="119" fill="white"/>
</clipPath>
<clipPath id="clip1_6_2">
<rect width="442" height="119" fill="white"/>
</clipPath>
</defs>
</svg>
